<svg xmlns="http://www.w3.org/2000/svg" viewBox="0 0 800 500" role="img" aria-labelledby="t d">
<title id="t">Backpack In The Park field unit</title><desc id="d">A small radio backpack among trees, waiting for messages.</desc>
<rect width="800" height="500" fill="#101b19"/><path d="M0 390Q150 330 290 390T550 370T800 390V500H0Z" fill="#173d31"/><g fill="#245943"><path d="M70 0h38v410H70zM36 120h105L89 35zM32 215h116L90 95z"/><path d="M680 0h42v420h-42zM635 140h132L700 30zM625 245h150L700 105z"/></g><g transform="translate(295 118)"><path d="M55 72Q105 12 155 72" fill="none" stroke="#d8d0b4" stroke-width="15"/><rect x="25" y="60" width="160" height="240" rx="24" fill="#b36b3f" stroke="#f1d19b" stroke-width="8"/><rect x="47" y="104" width="116" height="82" fill="#0a2222" stroke="#d8d0b4" stroke-width="6"/><circle cx="78" cy="145" r="13" fill="#54ff74"/><path d="M105 145h35M105 165h44" stroke="#54ff74" stroke-width="7"/><path d="M67 212h78v55H67z" fill="#824529" stroke="#e7af73" stroke-width="6"/><path d="M180 38V0M180 10l30-25" stroke="#d8d0b4" stroke-width="7"/><circle cx="180" cy="39" r="8" fill="#54ff74"/></g><text x="400" y="455" fill="#d8d0b4" text-anchor="middle" font-family="monospace" font-size="28" letter-spacing="3">LOCAL MEMORY // UNIT 001</text>
</svg>
